<svg width="275" height="275" viewBox="0 0 275 275" fill="none" xmlns="http://www.w3.org/2000/svg">
<path fill-rule="evenodd" clip-rule="evenodd" d="M0 39.2241V0H39.2241V39.2241H0ZM274.569 39.2241H235.345V0H274.569V39.2241ZM98.0602 58.8361H58.8361V19.612H98.0602V58.8361ZM58.8361 58.8361V98.0602H19.612V58.8361H58.8361ZM215.732 58.8361H176.508V19.612H215.732V58.8361ZM215.732 58.8361H254.957V98.0602H215.732V58.8361ZM156.896 78.4482H117.672V39.2241H156.896V78.4482ZM196.12 117.672V78.4482H156.896V117.672H117.672V78.4482H78.4482V117.672H39.2241V156.896H78.4482V196.12H117.672V235.345H156.896V196.12H196.12V156.896H235.345V117.672H196.12ZM156.896 156.896V196.12H117.672V156.896H156.896ZM156.896 156.896V117.672H196.12V156.896H156.896ZM117.672 156.896H78.4482V117.672H117.672V156.896ZM19.612 215.732V176.508H58.8361V215.732H19.612ZM58.8361 215.732H98.0602V254.957H58.8361V215.732ZM235.345 274.569V235.345H274.569V274.569H235.345ZM215.732 215.732V176.508H254.957V215.732H215.732ZM215.732 215.732V254.957H176.508V215.732H215.732Z" fill="#F8FFBE"/>
<path d="M0 274.569V235.345H39.2241V274.569H0Z" fill="#F8FFBE"/>
</svg>
